<svg width="150" height="150" fill="none" xmlns="http://www.w3.org/2000/svg"><path fill-rule="evenodd" clip-rule="evenodd" d="M66.034 11.018l-1.29 1.018v51.517h5.386V15.896h68.404l.322 7.447c.177 4.096.321 27.974.321 53.061v45.613H82.862v5.405h29.817c28.628 0 29.865-.038 30.974-.94l1.156-.938.137-55.684c.074-30.626.014-56.187-.135-56.802-.15-.615-.707-1.554-1.239-2.088-.946-.949-1.781-.97-38.607-.97-37.339 0-37.651.008-38.931 1.018zM83.85 24.127c-2.52 1.27-3.928 3.676-3.924 6.704.006 4.526 2.747 7.166 7.448 7.17 2.413.004 3.029-.199 4.47-1.467 2.15-1.895 2.956-3.898 2.653-6.598-.592-5.27-5.934-8.184-10.647-5.809zm17.13 2.333v2.702h28.892v-5.404H100.98v2.702zm-11.707.515c2.598 1.348 3.097 4.232 1.135 6.57-2.64 3.148-7.547 1.188-7.547-3.013 0-2.074 2.117-4.18 4.31-4.287.35-.017 1.295.311 2.102.73zm11.707 7.837v2.702h15.67V32.11h-15.67v2.702zM84.331 49.16c-.404.148-1.251.739-1.883 1.312-5.132 4.661-2.03 13.077 4.821 13.077 7.447 0 10.17-9.86 3.8-13.756-1.538-.94-5.01-1.267-6.738-.633zm16.65 2.847v2.702h28.892v-5.405h-28.892v2.703zm-10.675 1.25c1.284 1.29 1.45 1.747 1.202 3.288-.367 2.272-1.613 3.521-3.878 3.89-1.536.25-1.992.082-3.276-1.206-1.987-1.993-2.008-4.078-.06-6.032 1.947-1.954 4.025-1.933 6.011.06zM34.13 58.513c-9.614 3.443-15.046 11.646-14.297 21.589.332 4.405 2.26 8.888 5.2 12.087l1.998 2.175-3.793.269c-5.505.389-9.08 1.9-12.38 5.233-3.158 3.188-4.81 6.422-5.411 10.589-.236 1.63-.433 8.768-.438 15.861L5 139.213h5.876v-13.822c0-14.984.194-16.441 2.565-19.328 2.55-3.104 4.3-3.649 15.97-4.973l10.596-1.203 9.062.988c12.296 1.341 13.657 1.662 16.167 3.818 3.785 3.251 3.891 3.798 3.904 20.149l.01 14.371h5.94l-.164-15.107c-.188-17.338-.42-18.502-4.635-23.203-3.695-4.124-8.723-6.371-14.302-6.39l-2.144-.009 2.065-2.247c9.303-10.126 5.883-26.84-6.703-32.763-2.87-1.35-3.946-1.581-7.97-1.71-3.524-.114-5.246.063-7.106.729zm66.85 1.846v2.702h15.67v-5.405h-15.67v2.703zm-55.038 4.469c6.993 2.906 10.68 11.105 8.268 18.389-1.21 3.653-4.924 7.37-8.81 8.817-9.39 3.496-19.344-3.576-19.344-13.743 0-10.373 10.392-17.409 19.886-13.463zm38.031 10.007c-5.519 2.513-5.478 10.804.066 13.33 2.647 1.206 4.11 1.165 6.65-.183 5.275-2.798 5.269-10.291-.01-13.007-2.612-1.343-4.001-1.372-6.706-.14zm17.007 2.474v2.948h28.892V74.36H100.98v2.948zm-12.3.053c1.51.528 2.996 2.55 2.996 4.075 0 1.527-1.17 3.22-2.743 3.969-2.882 1.372-6.072-.688-6.072-3.921 0-2.314.97-3.385 4.212-4.648.027-.01.75.226 1.606.525zm12.3 8.299v2.948h15.67v-5.896h-15.67v2.948zm-17.51 14.737c-6.37 3.896-3.647 13.755 3.8 13.755 7.446 0 10.169-9.859 3.799-13.755-2.095-1.282-5.504-1.282-7.6 0zm17.511 2.213v2.702h28.892v-5.404h-28.892v2.702zm-10.736 1.19c.977.981 1.432 1.929 1.432 2.986 0 2.114-2.301 4.422-4.408 4.422-2.106 0-4.407-2.308-4.407-4.422 0-1.057.454-2.005 1.431-2.986.977-.98 1.922-1.436 2.976-1.436s2 .456 2.976 1.436zm10.736 7.162v2.702h15.67v-5.404h-15.67v2.702z" fill="#00496E"/></svg>