<svg width="150" height="150" fill="none" xmlns="http://www.w3.org/2000/svg"><path fill-rule="evenodd" clip-rule="evenodd" d="M64.857 14.92c-6 2.136-9.743 7.55-9.82 14.204-.044 3.895.56 5.07 2.607 5.07 1.957 0 2.478-.861 2.49-4.118.041-11.476 13.872-15.13 19.072-5.038.629 1.22.932 2.814.932 4.897 0 3.406.496 4.259 2.478 4.259 2.078 0 2.65-1.164 2.617-5.314-.024-3.024-.269-4.165-1.342-6.242-2.889-5.594-7.443-8.423-13.517-8.396-2.013.01-4.496.314-5.517.678zm44.54 9.56c-7.371 1.082-14.388 5.873-18.025 12.307l-1.537 2.719-20.836.165c-23.287.186-23.138.167-30.808 3.813-9.868 4.69-17.007 12.038-20.936 21.544-1.262 3.054-1.73 4.789-2.825 10.462-.283 1.465-1.208 1.382-2.727-.244-1.605-1.718-2.348-3.176-2.348-4.61 0-2.717-2.85-4.292-4.603-2.542-1.425 1.422-.626 5.773 1.677 9.127 1.287 1.876 4.186 4.046 6.016 4.504 1.663.417 1.645.383 2.272 4.401 1.3 8.326 5.07 15.883 11.03 22.111l3.622 3.784v8.736c0 8.093.081 8.894 1.099 10.898 1.675 3.298 3.526 4.134 9.153 4.134 5.253 0 6.982-.64 8.87-3.281.987-1.382 1.158-2.279 1.302-6.835l.166-5.245 17.652.128 17.652.128.244 5.205c.263 5.603.728 6.751 3.605 8.896 1.155.86 2.06 1.004 6.316 1.004 4.103 0 5.25-.169 6.588-.974 2.951-1.775 3.506-3.301 3.506-9.642v-5.629l2.562-.838c11.844-3.872 21.881-13.618 25.77-25.021 1.042-3.057 1.321-3.456 2.41-3.458 4.048-.009 8.52-3.304 9.662-7.12.377-1.257.601-5.215.601-10.621 0-12.435-.397-12.945-10.105-12.967l-5.761-.013-1.219-2.038c-1.676-2.798-7.995-9.107-11.106-11.087l-2.563-1.631v-9.588c0-11.99.203-11.65-6.376-10.683zm1.494 14.076v9.234l3.5 2.26c4.333 2.798 8.481 6.888 11.123 10.968 1.107 1.71 2.279 3.278 2.604 3.484.325.206 3.392.378 6.815.383l6.224.007V82.02l-1.427 1.424c-1.393 1.391-1.546 1.425-6.481 1.425-5.492 0-7.225.61-7.225 2.547 0 1.324 1.35 2.813 2.55 2.813 1.165 0 .954.88-1.342 5.603-4.248 8.736-13.247 16.095-22.443 18.355-4.099 1.006-4.149 1.107-4.149 8.36 0 7.956-.107 8.125-5.173 8.125-4.875 0-5.078-.324-5.078-8.089 0-4.212-.18-6.072-.624-6.44-.408-.337-7.544-.587-20.625-.72-11-.112-20.583-.366-21.295-.565-.986-.275-1.538-.118-2.319.661-.938.937-1.024 1.57-1.024 7.583 0 7.632.04 7.57-4.881 7.57-5.119 0-4.882.537-4.882-11.054v-10.044l-3.232-2.973c-7.94-7.301-12.022-16.316-12.049-26.605-.036-14.19 9.274-27.447 23.014-32.773 6.624-2.567 9.107-2.797 30.19-2.797h19.289l1.538-1.637c.846-.9 2.306-2.89 3.245-4.42 2.153-3.507 5.996-6.496 10.189-7.922 1.78-.606 3.401-1.107 3.602-1.114.201-.007.366 4.143.366 9.222zm-7.566 16.794c-2.979 1.327-5.126 4.58-5.126 7.77 0 1.919.748 2.746 2.479 2.746 1.541 0 2.171-.662 2.618-2.75.711-3.323 4.323-4.404 6.452-1.933.629.73 1.143 1.819 1.143 2.42 0 1.446.882 2.263 2.441 2.263 1.759 0 2.441-.85 2.441-3.045 0-3.102-2.442-6.481-5.524-7.643-1.863-.703-5.143-.621-6.924.172zm-34.903 5.156c-.755.754-.977 1.624-.977 3.838 0 2.808-.028 2.868-1.505 3.163-2.002.4-4.2 2.01-5.092 3.733-1.042 2.012-.92 5.75.25 7.665 1.64 2.688 3.58 3.525 8.178 3.526 3.375.002 4.186.16 5.004.977 1.155 1.153 1.222 1.913.284 3.196-.61.835-1.428.965-6.956 1.11-3.445.09-6.539.39-6.875.668-.776.643-.79 2.934-.024 3.7.331.33 1.92.584 3.661.584h3.075v2.924c0 2.274.217 3.14.977 3.898 2.248 2.244 4.393.37 4.393-3.837 0-2.808.03-2.869 1.506-3.164 2.002-.4 4.199-2.01 5.092-3.733 1.042-2.012.92-5.75-.25-7.665-1.641-2.688-3.58-3.524-8.178-3.526-3.376-.002-4.186-.16-5.004-.977-1.155-1.153-1.223-1.913-.284-3.196.61-.834 1.428-.965 6.956-1.11 3.445-.09 6.54-.39 6.874-.668.776-.642.792-2.934.025-3.7-.332-.33-1.92-.584-3.661-.584h-3.076v-2.924c0-3.037-1.011-4.872-2.685-4.872-.402 0-1.171.438-1.708.974z" fill="#00496E"/></svg>