<svg width="150" height="150" fill="none" xmlns="http://www.w3.org/2000/svg"><path fill-rule="evenodd" clip-rule="evenodd" d="M61.856 18.368c-6.434 5.577-11.813 10.14-11.953 10.14-.14 0-.254-2.67-.254-5.936v-5.936h1.244c1.172 0 1.244-.153 1.244-2.65v-2.65l-3.058-.318c-3.922-.408-17.085-.405-21.445.005l-3.358.315v2.65c0 2.613.02 2.648 1.492 2.648h1.493v31.595l-9.468 8.227-9.469 8.227 1.545 1.94c.85 1.065 1.708 2.039 1.908 2.162.2.122 1.731-.987 3.402-2.467 1.67-1.48 3.171-2.69 3.334-2.69.163 0 .239 16.417.169 36.482l-.127 36.481-5.598.14-5.597.14v5.409h134.828v-5.441h-10.946V63.509l3.191 2.786 3.191 2.785 1.784-2.072c.981-1.14 1.772-2.199 1.756-2.354-.016-.155-11.896-10.522-26.4-23.037C74.498 6.875 76.117 8.227 74.771 8.227c-.869 0-4.55 2.89-12.915 10.14zm39.674 19.504l23.742 20.495v77.98H24.276l.005-38.956.005-38.955L49.53 36.613 74.774 14.79l1.507 1.294c.83.712 12.191 10.516 25.249 21.788zM43.664 25.417l-.016 8.78-3.84 3.272a964.717 964.717 0 01-5.457 4.62l-1.617 1.347v-26.8h10.945l-.015 8.78zm21.962 27.352C49.782 56.894 38.61 70.415 37.832 86.407c-.355 7.275.66 12.104 3.946 18.77 2.193 4.451 3.166 5.795 6.836 9.444 3.673 3.652 5.019 4.615 9.498 6.794 5.924 2.883 10.778 4.048 16.857 4.048 15.908 0 30.253-10.379 35.209-25.475 1.753-5.338 2.158-13.764.933-19.372-2.974-13.61-14.42-25.093-27.977-28.072-4.956-1.088-12.854-.987-17.508.225zm16.61 5.716c10.814 2.546 20.015 11.668 22.901 22.706.991 3.79.989 11.016-.005 14.84-1.454 5.594-4.063 10.038-8.432 14.36-6.727 6.657-13.952 9.437-23.419 9.013-16.202-.726-28.748-13.2-29.478-29.31-.427-9.426 2.378-16.622 9.064-23.256 8.224-8.159 18.173-10.988 29.37-8.353zM73.133 69.17c-.334.332-.597 1.923-.597 3.608v3.013l-2.114.564c-6.22 1.656-7.625 10.232-2.215 13.512 1.219.74 2.503.966 5.47.968 3.47.002 4.01.132 5.12 1.235 1.029 1.023 1.147 1.407.693 2.25-.84 1.56-2.563 1.958-8.462 1.958-4.852 0-5.477.1-5.937.957-.732 1.359-.65 1.878.48 3 .774.77 1.658.99 3.98.99h2.985v3.198c0 2.655.163 3.284.962 3.71 1.367.727 1.89.645 3.018-.478.752-.748.995-1.648.995-3.69v-2.702l1.945-.521c1.155-.309 2.559-1.217 3.458-2.235 2.662-3.014 2.655-6.894-.019-9.921-1.755-1.987-3.944-2.69-8.394-2.693-3.471-.003-4.453-.503-4.453-2.268 0-1.992 1.26-2.42 7.9-2.682l6.259-.247.474-1.346c.779-2.208-.676-3.353-4.262-3.353H77.51v-2.61c0-1.564-.31-3.053-.775-3.71-.842-1.197-2.653-1.451-3.603-.507z" fill="#00496E"/></svg>