<svg width="150" height="150" fill="none" xmlns="http://www.w3.org/2000/svg"><path fill-rule="evenodd" clip-rule="evenodd" d="M82.896 8.942c-8.704 1.94-17.438 7.126-22.78 13.526-4.32 5.176-7.658 12.015-9.032 18.51-1.06 5.005-.645 15.654.785 20.166 1.527 4.818 4.859 11.051 7.852 14.69 4.91 5.97 12.823 11.145 20.4 13.341 5.025 1.457 14.183 1.789 19.51.708 16.817-3.412 29.692-16.905 32.441-33.994.717-4.459.328-13.17-.772-17.239-3.888-14.393-15.784-25.925-30.359-29.43-4.59-1.103-13.711-1.244-18.045-.278zm17.5 5.576c15.621 3.938 26.876 18.552 26.876 34.9 0 16.72-11.557 31.239-28.009 35.188-5.184 1.245-13.888.824-18.992-.917-5.618-1.917-9.966-4.683-14.314-9.106-4.426-4.503-6.931-8.54-8.629-13.91-3.227-10.207-2.102-20.748 3.178-29.754 2.09-3.566 8.956-10.462 12.49-12.545 8.122-4.788 18.122-6.195 27.4-3.856zM89.365 29.903c-.46.658-.743 2.095-.743 3.769 0 2.639-.036 2.712-1.472 3-5.333 1.07-7.874 8.151-4.407 12.283 1.886 2.248 3.496 2.856 7.556 2.856 3.897 0 5.155.413 5.98 1.958.404.756.35 1.243-.239 2.142-.743 1.139-.906 1.165-7.18 1.165-6.396 0-6.422.004-7.237 1.252-.733 1.121-.745 1.382-.114 2.512.636 1.14 1.012 1.275 3.908 1.403l3.205.141v2.743c0 3.296.903 4.871 2.794 4.871 2 0 2.454-.815 2.454-4.403 0-3.055.066-3.255 1.074-3.257 1.51-.003 4.53-1.943 5.629-3.615 1.271-1.933 1.261-6.125-.02-8.232-1.574-2.59-3.522-3.462-7.734-3.464-5.541-.003-7.624-1.448-5.896-4.093.746-1.142.926-1.173 6.751-1.173 3.292 0 6.4-.223 6.908-.495 1.079-.58 1.285-3.394.308-4.207-.338-.281-2.002-.577-3.698-.657l-3.083-.145-.145-3.093c-.08-1.7-.374-3.37-.655-3.709-.83-1.003-3.112-.744-3.944.448zm-78.52 55.742c-.964.346-1.91 1.596-1.902 2.511.02 1.987.655 2.174 8.205 2.422l7.296.239v41.16l-4.67.137c-4.44.13-4.698.195-5.207 1.315-.397.875-.395 1.489.008 2.375.542 1.194.565 1.197 7.176 1.197 4.865 0 6.77-.166 7.148-.623.283-.342.578-2.55.654-4.906l.14-4.282 1.972.122c1.085.067 11.177 3.379 22.427 7.36 18.383 6.504 20.84 7.259 24.27 7.45 2.525.141 4.561-.019 6.014-.472 3.414-1.063 53.245-31.152 55.623-33.586 3.356-3.434 3.862-8.201 1.334-12.529-1.794-3.071-4.814-4.676-8.801-4.676-3.076 0-3.353.11-12.28 4.885-5.024 2.686-9.222 4.884-9.329 4.884-.108 0-1.088-.85-2.178-1.89-1.09-1.04-2.789-2.116-3.776-2.39-1.063-.297-7.66-.501-16.197-.503-8.226-.002-14.93-.204-15.63-.47-.676-.258-2.676-1.586-4.445-2.95-6.25-4.821-12.244-6.724-21.11-6.703-6.104.015-11.06 1.041-15.209 3.15-1.328.675-2.53 1.227-2.67 1.227-.14 0-.254-.741-.254-1.648 0-2.849-.95-3.144-10.008-3.1-4.337.02-8.208.153-8.601.294zm44.363 5.98c3.468.847 8.179 3.156 10.576 5.184 5.023 4.248 3.897 4.029 22.043 4.298l16.144.239 1.391 1.563c1.99 2.235 1.912 4.472-.231 6.621l-1.622 1.627H82.943c-19.929 0-20.595.03-21.52.958-1.145 1.149-1.225 2.53-.204 3.555.659.66 3.293.752 21.726.752 22.696 0 22.496.02 25.666-2.66 1.769-1.495 3.364-4.54 3.381-6.449.009-1.081.977-1.73 8.919-5.983 10.24-5.483 11.373-5.9 13.535-5.002 1.696.704 3.319 2.992 3.321 4.683.005 2.828-.743 3.36-26.842 19.134-14.017 8.472-26.267 15.731-27.22 16.13-3.876 1.625-5.519 1.237-27.348-6.461-11.21-3.953-21.85-7.431-23.643-7.728l-3.26-.54V95.818l1.312-.47a20.37 20.37 0 002.6-1.197c5.562-3.14 14.907-4.222 21.842-2.527z" fill="#00496E"/></svg>