<svg width="150" height="150" fill="none" xmlns="http://www.w3.org/2000/svg"><path fill-rule="evenodd" clip-rule="evenodd" d="M90.295 7.729c-.946.689-1.016 1.65-1.26 17.32l-.258 16.59-6.712 4.006c-10 5.97-10.005 6.609-.09 12.491l6.923 4.108.327 4.58c.18 2.52.327 20.142.327 39.159 0 30.749.09 34.668.81 35.386.716.712 3.766.807 25.735.807 23.49 0 24.972-.054 25.778-.939.785-.865.854-6.221.854-66.56 0-64.936-.01-65.632-1.033-66.649-1.003-1-1.72-1.028-25.715-1.028-20.493 0-24.853.124-25.686.729zm46.239 38.249c0 18.045.154 45.685.342 61.42l.343 28.611H95.231V59.478l-1.678-1.237c-.923-.68-3.593-2.366-5.933-3.745l-4.256-2.507 2.626-1.55a203.15 203.15 0 005.805-3.605l3.177-2.056.137-15.805.137-15.805h41.288v32.81zm-25.151-27.47c-8.072 2.627-12.343 8.774-11.938 17.181.314 6.526 3.549 11.368 9.545 14.288 3.544 1.727 8.838 1.946 12.943.536 3.382-1.161 7.2-4.534 9.199-8.126 1.395-2.507 1.53-3.18 1.527-7.632-.002-4.287-.169-5.196-1.368-7.453-2.989-5.624-8.176-8.998-14.328-9.322-1.993-.105-4.306.114-5.58.528zm8.411 3.123c3.984 1.178 6.655 3.445 8.533 7.245 1.457 2.945 1.608 3.663 1.376 6.536-.156 1.94-.74 4.145-1.462 5.526l-1.202 2.298-.34-1.963c-.415-2.393-1.383-3.426-3.66-3.907-1.346-.283-1.694-.588-1.552-1.36 1.354-7.341-.289-10.506-5.45-10.5-4.683.004-7.13 3.78-5.668 8.746.822 2.79.725 3.073-1.05 3.073-1.782 0-3.763 2.185-3.763 4.151 0 1.362-.122 1.527-.746 1.012-1.37-1.132-2.479-5.557-2.258-9.01.263-4.115 2.269-7.547 5.789-9.903 4.089-2.737 7.064-3.241 11.453-1.944zm-1.813 7.488c1.527.814 1.369 4.286-.269 5.916-1.572 1.566-1.877 1.568-3.338.02-3.107-3.293-.251-7.992 3.607-5.936zm-79.397 1.99c-3.38.865-7.706 3.398-10.29 6.025-8.076 8.205-8.36 21.409-.642 29.745l2.056 2.22-4.024.343c-4.854.412-6.307.833-9.826 2.844C12.58 74.158 9.463 77.949 8 81.84c-1.055 2.806-1.08 3.564-.94 27.923l.142 25.037 1.409 2.118c2.11 3.175 5.369 4.854 9.993 5.149 5.817.372 7.092-.391 7.556-4.516l.145-1.284 17.166-.136 17.167-.136v1.829c0 1.258.397 2.225 1.268 3.091 1.092 1.088 1.742 1.261 4.716 1.261 1.896 0 4.404-.282 5.573-.627 2.878-.851 6.78-4.76 7.534-7.55.396-1.465.528-9.63.423-26.157L80 83.816l-1.69-3.417c-2.117-4.279-6.21-8.14-10.206-9.629-1.571-.585-3.397-1.064-4.056-1.064-.66 0-2.26-.145-3.556-.322l-2.358-.322 1.84-1.862c1.013-1.025 2.639-3.52 3.613-5.546 5.343-11.108.503-24.058-10.942-29.274-2.419-1.103-3.945-1.407-7.708-1.536-2.58-.088-5.439.031-6.353.265zm8.824 6.477c5.312 1.378 9.523 5.234 11.155 10.217.924 2.824.448 8.778-.914 11.424-.6 1.162-2.263 3.165-3.699 4.45-4.274 3.826-9.209 4.865-14.988 3.156-3.657-1.08-8.212-5.492-9.468-9.169-.977-2.863-1.114-6.833-.331-9.64 1.324-4.747 6.485-9.495 11.553-10.63 3.024-.678 3.376-.667 6.692.192zm73.121 2.487l2.839.593v2.827c0 2.778-.035 2.843-2.021 3.809-3.466 1.684-10.265 1.104-12.439-1.06-.937-.933-1.009-3.781-.125-4.942.65-.853 4.485-1.797 7.357-1.812.852-.004 2.827.259 4.389.585zm-10.658 18.856c-3.484 1.367-6.827 4.353-8.695 7.767-1.252 2.287-1.543 3.504-1.722 7.2-.19 3.922-.062 4.78 1.077 7.257 1.683 3.66 4.309 6.504 7.702 8.343 3.79 2.053 9.683 2.393 13.921.802 3.857-1.45 7.268-4.516 9.059-8.147 1.262-2.557 1.449-3.534 1.449-7.563 0-3.868-.207-5.044-1.264-7.182-1.614-3.264-4.771-6.406-8.043-8.002-3.559-1.736-9.717-1.953-13.484-.475zm10.935 2.896c1.586.538 3.418 1.745 4.922 3.242 4.255 4.236 5.215 10.214 2.525 15.717l-1.242 2.542-.316-1.9c-.412-2.48-1.201-3.36-3.667-4.096-1.546-.461-1.942-.796-1.67-1.416.195-.446.464-2.249.596-4.005.229-3.018.155-3.28-1.327-4.754-1.362-1.357-1.936-1.561-4.377-1.561-5.546 0-7.784 4.38-5.296 10.359.275.66-.029.931-1.36 1.212-2.33.49-4.038 2.156-4.038 3.938 0 2.176-.773 1.757-2.001-1.084-3.231-7.477.857-16.193 8.71-18.571 2.232-.676 5.916-.514 8.541.377zm-2.446 7.47c.878.873.769 4.082-.184 5.436-.454.645-1.347 1.142-2.053 1.142-2.351 0-3.965-4.434-2.329-6.397.788-.945 3.684-1.06 4.566-.182zM54.44 76.13c12.114 1.364 13.93 1.879 16.627 4.707 2.998 3.145 2.996 3.125 2.996 29.2 0 23.231-.03 23.945-1.033 24.944-.757.755-1.72 1.028-3.614 1.028h-2.581V91.807h-6.196v38.548H26.048V91.807h-5.68v44.202h-2.801c-2.413 0-2.951-.189-3.873-1.354-1.047-1.326-1.07-1.844-1.047-24.543.024-24.91.06-25.29 2.742-28.79 2.331-3.042 4.881-3.856 16.194-5.17 5.617-.652 10.491-1.213 10.833-1.246.342-.033 5.753.518 12.024 1.224zm68.158 4.372c.817.435 1.029 1.077 1.029 3.124 0 2.534-.038 2.594-2.195 3.569-3.115 1.408-7.768 1.346-10.732-.143-1.993-1-2.325-1.4-2.456-2.955-.2-2.362.81-3.636 3.292-4.153 2.546-.53 9.697-.17 11.062.558zm-9.297 17.486c-5.587.91-10.259 4.543-12.642 9.829-1.274 2.827-1.396 3.591-1.204 7.573.333 6.899 3.009 10.998 9.347 14.323 2.371 1.243 3.245 1.409 7.338 1.391 4.021-.018 5.01-.209 7.34-1.413 5.737-2.964 8.946-7.869 9.317-14.241.179-3.08 0-4.444-.887-6.786-2.813-7.422-10.724-11.96-18.609-10.676zm7.387 3.719c2.505.713 6.287 4.014 7.651 6.675 2.061 4.022 1.782 10.149-.602 13.239l-.99 1.282-.011-1.625c-.014-1.948-2.469-4.286-4.5-4.286-1.13 0-1.258-.16-.924-1.157.879-2.618.879-6.561 0-7.897-1.195-1.816-4.05-2.916-6.498-2.505-4.458.75-6.081 5.255-3.841 10.659.287.694.118.9-.741.9-1.509 0-3.962 1.315-4.355 2.336-.176.457-.321 1.419-.321 2.138 0 1.081-.128 1.199-.747.688-1.474-1.218-2.484-4.961-2.254-8.352.26-3.838 1.352-6.302 3.939-8.886 4.03-4.026 8.101-4.946 14.194-3.209zm-2.856 7.347c2.033 1.417 1.143 6.119-1.27 6.723-1.556.388-2.602-.5-3.223-2.739-.789-2.847.151-4.425 2.815-4.724.293-.033 1.047.3 1.678.74zm4.633 11.271c1.024.251 1.162.61 1.162 3.023 0 2.723-.013 2.745-2.182 3.717-2.973 1.332-8.211 1.303-10.984-.062-1.843-.907-2.079-1.238-2.2-3.073-.074-1.13.083-2.388.349-2.795 1.06-1.621 8.703-2.068 13.855-.81z" fill="#00496E"/></svg>