<svg width="150" height="150" fill="none" xmlns="http://www.w3.org/2000/svg"><path fill-rule="evenodd" clip-rule="evenodd" d="M65.99 10.24c-14.376 2.642-26.982 10.359-35.432 21.69-12.602 16.9-14.872 39.367-5.872 58.137l1.924 4.012-1.302 2.832c-1.207 2.626-1.317 3.471-1.503 11.577l-.201 8.746H6.592v6.042l4.155.147 4.156.147.138 8.999.137 8.998h5.495l.137-8.998.138-8.999h108.301l.137 8.999.138 8.998h6.022v-18.25h8.059v-6.083h-17.014l-.207-8.999c-.195-8.483-.282-9.144-1.513-11.53l-1.304-2.53 1.711-3.419c6.229-12.451 7.438-28.616 3.134-41.962-5.875-18.22-20.375-32.192-38.706-37.294-4.073-1.135-6.022-1.359-13.096-1.508-4.572-.097-9.35.014-10.62.248zm18.519 6.905c10.3 2.14 17.996 6.383 25.598 14.11 5.151 5.233 7.764 9.088 10.468 15.439 5.347 12.552 5.099 27.16-.68 40.02l-1.434 3.191-1.459-.759c-1.15-.598-8.085-1.823-10.321-1.823-.236 0 .368-.938 1.344-2.086 3.095-3.638 4.043-6.224 4.07-11.095.022-4.011-.1-4.537-1.777-7.604-3.203-5.86-8.912-9.01-15.38-8.488-8.283.669-14.154 6.8-14.682 15.332-.274 4.428 1.022 8.238 3.936 11.57l2.008 2.296-2.906.322c-7.593.84-11.504 2.621-14.31 6.521-2.396 3.328-2.953 6.181-2.953 15.123v8.02H41.852V104.56h-6.044v12.674h-6.149l.195-8.239c.206-8.758.532-10.097 3.01-12.357 2.138-1.95 3.37-2.256 14.165-3.513 12.224-1.423 14.526-2.21 17.96-6.136 5.921-6.77 5.3-17.1-1.385-23.023-6.264-5.549-16.005-5.268-21.862.63-3.433 3.457-4.622 6.43-4.63 11.574-.006 4.439.636 6.418 3.33 10.266l.975 1.394h-1.691c-.93 0-3.027.35-4.659.778-3.52.922-3.527.917-5.508-3.807-3.15-7.512-4.48-17.599-3.349-25.387 3.08-21.197 18.44-37.768 39.155-42.24 4.67-1.008 14.362-1.024 19.144-.03zM72.579 23.7v3.802h5.038v-7.604H72.58V23.7zm.605 7.452c-.435.438-.604 3.901-.604 12.385 0 15.754.225 15.994 8.685 9.249 7.446-5.938 7.886-6.578 5.897-8.58-1.35-1.36-2.423-.995-6.26 2.131l-3.033 2.47-.139-8.46c-.085-5.192-.352-8.721-.69-9.133-.69-.836-3.048-.874-3.856-.062zm-24.783 4.461v2.535h5.037V33.08h-5.037v2.534zm48.358 0v2.535h5.037V33.08h-5.037v2.534zM32.785 54.371v2.535h5.038v-5.07h-5.038v2.535zm80.597 0v2.535h5.037v-5.07h-5.037v2.535zm-10.978 10.402c4.065 2.707 5.988 8.417 4.433 13.161-1.414 4.31-6.024 7.506-10.83 7.506-5.981 0-10.994-5.15-10.994-11.298 0-8.954 9.959-14.32 17.391-9.369zM57.72 65.895c7.401 3.714 8.73 13.337 2.592 18.76-5.016 4.432-13.033 3.261-16.79-2.452-1.748-2.66-2.168-7.107-.97-10.266 2.23-5.876 9.627-8.822 15.168-6.042zm47.689 27.485c8.896 1.032 10.584 1.575 12.678 4.08 1.921 2.297 2.341 4.545 2.344 12.549l.003 7.225h-6.045V104.56h-6.045v12.674H84.165V104.56h-6.044v12.674h-6.045v-7.529c0-8.138.402-10.163 2.461-12.415 2.166-2.367 3.851-2.918 11.832-3.87 9.863-1.174 9.265-1.173 19.04-.04z" fill="#00496E"/></svg>