<svg width="150" height="150" fill="none" xmlns="http://www.w3.org/2000/svg"><path fill-rule="evenodd" clip-rule="evenodd" d="M26.825 8.526c-5.197 1.045-9.94 4.84-12.212 9.77-1.09 2.366-1.126 3.106-1.271 26.19-.134 21.266-.062 23.842.686 24.592.708.71 2.313.838 10.553.838 10.42 0 10.965-.13 10.965-2.626 0-2.71-1.16-3.1-9.252-3.1H18.94V43.615c0-22.912-.018-22.772 3.526-26.42 4.034-4.153 10.468-4.34 14.794-.428 4.29 3.88 3.97-1.355 3.982 65.024.008 39.639.188 59.309.549 59.986.354.662 1.086 1.006 2.146 1.006 1.329 0 2.453-.831 6.48-4.792l4.872-4.792 4.797 4.792c6.333 6.326 6.337 6.326 12.67 0l4.798-4.792 4.872 4.792c6.427 6.323 6.366 6.324 12.796-.153l4.909-4.945 4.949 4.945c3.61 3.608 5.3 4.945 6.248 4.945.945 0 2.564-1.275 5.947-4.684 2.557-2.577 4.892-4.685 5.189-4.685.298 0 2.633 2.108 5.19 4.685 4.717 4.753 6.393 5.611 7.939 4.06.478-.479.623-14.752.623-61.074V20.636l-1.581-3.173c-1.842-3.697-4.237-5.98-8.255-7.87l-2.878-1.354-47.221-.082c-25.972-.044-48.227.122-49.456.369zm97.715 6.559c2.405 1.298 3.897 2.826 5.258 5.385.926 1.74.975 4.28 1.108 57.123.077 30.416-.047 55.301-.274 55.301-.228 0-1.918-1.522-3.757-3.383-1.908-1.931-3.791-3.383-4.386-3.383-.627 0-3.069 2.023-6.113 5.065l-5.068 5.064-5.069-5.064c-3.557-3.554-5.436-5.065-6.3-5.065-.856 0-2.753 1.5-6.238 4.934l-5.007 4.935-4.9-4.935c-3.482-3.508-5.26-4.934-6.148-4.934-.882 0-2.73 1.457-6.258 4.934l-5.008 4.935-4.899-4.935c-3.434-3.458-5.266-4.934-6.127-4.934-.81 0-2.447 1.179-4.81 3.468l-3.582 3.469V77.891c0-59.83.096-57.728-2.834-62.168l-1.349-2.044 39.843.142c39.662.142 39.852.148 41.918 1.264zM67.496 36.901c-.449.45-.815 1.688-.815 2.755 0 1.848-.104 1.965-2.278 2.548-8.346 2.239-8.304 13.9.058 16.229 1.078.3 3.531.547 5.45.549 3.15.002 3.575.13 4.342 1.304.787 1.205.787 1.397 0 2.602-.835 1.277-.974 1.301-7.584 1.301-6.042 0-6.84.107-7.772 1.041-1.276 1.28-1.308 2.164-.13 3.574.72.86 1.608 1.115 4.281 1.228l3.373.143.161 2.237c.128 1.784.418 2.355 1.427 2.816 2.173.993 3.766-.133 3.96-2.799.152-2.099.268-2.246 2.13-2.685 4.306-1.016 7.236-5.907 6.092-10.17-1.26-4.691-3.859-6.315-10.112-6.315-3.744 0-4.598-.162-5.474-1.04-.57-.573-1.038-1.393-1.038-1.822 0-.43.467-1.25 1.038-1.822.931-.934 1.73-1.041 7.754-1.041 6.353 0 6.76-.062 7.525-1.157 1.067-1.529 1.019-2.275-.23-3.527-.825-.828-1.73-1.041-4.411-1.041H71.87v-2.045c0-2.212-1.035-3.68-2.595-3.68-.53 0-1.33.367-1.779.817zm25.13.223c-1.246 1.25-1.332 2.753-.222 3.867.697.699 2.65.818 13.388.818 13.503 0 13.818-.061 13.818-2.677 0-2.818-1.071-3.049-14.126-3.049-11.128 0-11.88.061-12.857 1.041zm-.222 16.953c-1.11 1.114-1.024 2.616.223 3.867.977.98 1.73 1.04 12.857 1.04 13.055 0 14.126-.23 14.126-3.048 0-2.616-.315-2.677-13.818-2.677-10.737 0-12.691.12-13.388.818zm.044 16.79c-1.127 1.248-1.09 2.84.09 3.912.827.75 2.528.861 13.195.861 13.263 0 13.877-.127 13.877-2.863 0-2.738-.606-2.862-13.967-2.862-11.293 0-12.41.08-13.195.952zm-33.551 22.47c-1.25 1.252-1.298 1.998-.23 3.527l.807 1.157h29.253c25.901 0 29.346-.094 30.068-.818 1.094-1.097 1.031-2.989-.134-4.046-.858-.78-3.684-.862-29.838-.862-28.196 0-28.913.025-29.926 1.041zm-.26 17.362c-.809 1.24-.594 2.84.481 3.579 1.004.689 31.15.475 31.848-.226.803-.806.803-3.151 0-3.956-.456-.458-4.748-.625-16.075-.625H59.44l-.802 1.228zm44.991-.603c-.343.344-.623 1.233-.623 1.978 0 2.375.725 2.602 8.303 2.602 7.577 0 8.302-.227 8.302-2.602s-.725-2.603-8.302-2.603c-4.797 0-7.257.2-7.68.625z" fill="#00496E"/></svg>